PathFileType	4	(X/Y/Z)	C:\My Captures\DataSMARTClinic\0004~001 ID\0004~aa~STRATO_01\W2_STRATO_ID_01.trc
DataRate	CameraRate	NumFrames	NumMarkers	Units	OrigDataRate	OrigDataStartFrame	OrigNumFrames
250.00	250.00	14	18	mm	250.00	271	1811
Frame#	Time	r.should			l.should			c7			r.asis			l.asis			sacrum			r.bar1			l.bar1			r.knee1			l.knee1			r.bar2			r.mall			l.bar2			l.mall			r.met			r.heel			l.heel			l.met			
		X1	Y1	Z1	X2	Y2	Z2	X3	Y3	Z3	X4	Y4	Z4	X5	Y5	Z5	X6	Y6	Z6	X7	Y7	Z7	X8	Y8	Z8	X9	Y9	Z9	X10	Y10	Z10	X11	Y11	Z11	X12	Y12	Z12	X13	Y13	Z13	X14	Y14	Z14	X15	Y15	Z15	X16	Y16	Z16	X17	Y17	Z17	X18	Y18	Z18	

1144	4.576000	280.163556	1283.321619	383.603454	213.916093	1300.953746	92.943616	168.189645	1345.619917	245.374724	308.166742	865.227640	372.938812	311.320901	867.262900	108.813509	106.270075	903.345406	239.180356	236.407608	779.596090	428.928822	260.543138	762.587547	56.190006	258.224636	428.113490	360.000312	294.019073	431.822419	100.729600	245.333344	366.635680	360.137135	229.183719	75.097777	296.633452	261.325836	385.540903	94.853513	43.509468	194.950253	121.317819	351.449847	41.807383	284.828275	172.074974	44.620845	246.945813	-19.293182	217.797980	165.809333	90.462133	71.852714	152.507424	
1145	4.580000	284.626484	1283.807039	383.779794	217.670053	1301.219344	93.213029	172.326118	1345.971584	245.765626	312.079102	865.698755	373.276740	315.815270	868.043900	109.303460	110.484503	903.707862	239.273638	240.145445	779.807687	429.073691	265.317202	763.295233	56.431867	259.303927	428.176254	359.873027	302.008927	432.790130	101.316601	246.172652	366.715938	360.060990	229.271293	75.169094	296.546161	269.643009	386.297822	95.422924	54.163858	193.052500	121.633939	351.510614	41.786630	284.837902	172.332674	44.761904	246.700644	-9.234404	214.558288	166.310310	106.021352	72.411358	151.401356	
1146	4.584000	289.047152	1284.264326	383.968204	221.462995	1301.455855	93.478873	176.446527	1346.304178	246.165276	316.277564	866.204202	373.843223	320.326686	868.802309	109.820053	114.687175	904.033005	239.319503	244.035453	779.982269	429.127127	270.108640	763.963342	56.624241	260.365069	428.260773	359.790623	309.915423	433.765382	101.901792	247.001603	366.821527	359.989673	229.357988	75.257562	296.470910	277.914405	387.045115	96.022762	64.939462	190.995857	121.971466	351.567149	41.766554	284.858316	172.472045	44.888414	246.558741	0.987309	211.088270	166.834831	119.614951	71.821153	150.970653	
1147	4.588000	293.406099	1284.690380	384.163439	225.243568	1301.671267	93.752861	180.525571	1346.633673	246.550292	320.790857	866.665602	374.751925	324.834585	869.547486	110.365167	118.859105	904.343486	239.338592	247.907162	780.184031	429.222941	274.865955	764.574528	56.817070	261.437416	428.386807	359.760463	317.763269	434.765965	102.501884	247.742712	366.926551	359.860390	229.461104	75.369522	296.396136	286.174357	387.789905	96.635208	76.046459	188.594788	122.302398	351.617217	41.754965	284.898520	172.602713	45.008030	246.413708	11.354609	207.417101	167.387396	133.095369	70.965037	150.615275	
1148	4.592000	297.730923	1285.084486	384.294271	228.983983	1301.870584	94.014741	184.630707	1346.933246	246.923059	324.860156	867.055774	375.222713	329.325944	870.258212	110.920131	123.043351	904.652834	239.331067	251.730382	780.376792	429.386705	279.467881	765.143633	57.023246	262.519866	428.471595	359.724522	325.484574	435.806245	103.107207	248.437986	367.054284	359.706819	229.547188	75.485125	296.329856	294.452697	388.524652	97.231932	87.048225	185.761005	122.298650	351.668477	41.737616	284.928620	172.715485	45.158841	246.279448	21.427684	203.395829	167.716280	146.654591	70.057437	150.288567	
1149	4.596000	302.087724	1285.483837	384.436160	232.726410	1302.076936	94.274700	188.762069	1347.190380	247.334704	328.777701	867.430091	375.673503	333.853334	870.953798	111.458682	127.196833	904.932678	239.313856	255.522013	780.511558	429.532677	283.839583	765.547335	57.210132	263.637245	428.545862	359.662384	333.142459	436.852485	103.722639	248.312771	367.088497	359.009862	229.632586	75.603686	296.264231	302.615196	389.245659	97.840011	97.126797	183.015525	121.880978	351.648957	41.617028	284.909427	172.810435	45.309369	246.142983	31.158525	198.978379	167.707235	160.297260	69.088668	149.960920	
1150	4.600000	306.432784	1285.862088	384.604067	236.508310	1302.264929	94.529882	192.873806	1347.437620	247.708455	332.567513	867.737532	376.091480	338.291109	871.569514	112.030208	131.363258	905.183315	239.293575	259.352058	780.633450	429.618120	288.171649	765.856266	57.339232	264.816791	428.637445	359.622657	340.666711	437.942326	104.318708	247.235790	366.982251	357.631117	229.717910	75.732261	296.201199	310.741037	389.928073	98.442368	107.957549	180.182472	121.941097	350.546390	41.012056	285.020471	172.884554	45.466222	246.031567	41.620962	194.704205	168.170512	174.068660	68.077229	149.678633	
1151	4.604000	310.750097	1286.197305	384.750247	240.235209	1302.436948	94.780877	197.010323	1347.638726	248.064801	336.380959	868.033469	376.481444	342.726290	872.131050	112.611331	135.526419	905.409575	239.265054	263.151407	780.716300	429.717600	292.742878	766.318679	57.499032	265.914440	428.737432	359.588861	348.138243	439.034164	104.916863	247.556075	367.068648	357.223570	229.517847	75.931326	296.359539	318.844259	390.446663	99.140480	119.114563	177.464604	122.305453	348.948002	40.322531	285.342246	172.710806	45.882326	246.143028	52.454978	190.157488	168.644547	187.942490	67.035280	149.408385	
1152	4.608000	315.072238	1286.509871	384.885907	243.969306	1302.595735	95.004678	201.129168	1347.838879	248.456478	340.212822	868.275046	376.877725	347.252697	872.655809	113.148428	139.647812	905.609906	239.218891	266.884178	780.740380	429.849833	297.371209	766.790748	57.607017	266.926557	428.864270	359.541982	355.530560	440.106690	105.491593	248.198256	367.206454	357.044518	229.359120	76.220088	296.570569	326.911658	390.797496	99.974468	130.453885	174.727187	122.749701	350.062251	40.536154	285.118818	172.234312	46.598800	246.536627	63.626260	185.316622	168.947235	201.929614	66.008493	149.188668	
1153	4.612000	319.409996	1286.800861	385.010511	247.764766	1302.719593	95.219366	205.212161	1347.990870	248.833135	344.030023	868.505776	377.253264	351.796836	873.142719	113.663189	143.757075	905.778348	239.183083	270.575553	780.725777	430.002868	301.910758	767.264128	57.705320	267.940730	428.990573	359.501779	362.815231	441.149592	106.065579	248.897433	367.348731	356.926620	230.224580	76.371267	296.087623	334.814250	391.258031	100.661524	141.884357	171.853915	123.239763	351.271480	40.559053	284.467399	172.223717	46.932090	246.544287	74.853614	180.663079	169.481814	216.038853	64.975724	149.011850	
1154	4.616000	323.719800	1287.066579	385.107040	251.514584	1302.813292	95.447853	209.337682	1348.112226	249.176115	347.829401	868.745506	377.647191	356.321245	873.566806	114.185274	147.894338	905.901790	239.136070	274.267435	780.719161	430.126786	306.493163	767.715573	57.809308	268.960863	429.095626	359.466970	370.036304	442.138493	106.611907	249.632463	367.492825	356.849134	231.424674	76.575726	295.924008	342.610389	391.713709	101.265684	153.441444	169.017583	123.788074	352.217138	40.843926	284.168929	172.281742	47.136884	246.471971	86.165659	176.017731	170.086950	230.268121	63.925065	148.872480	
1155	4.620000	327.973425	1287.295103	385.221511	255.240887	1302.893996	95.651090	213.446319	1348.206878	249.511927	351.578057	868.858397	378.049016	360.826313	873.942494	114.690021	152.007774	905.997396	239.101946	278.063416	780.637026	430.171669	311.118424	768.142998	57.884626	269.941390	429.178387	359.430134	377.399594	442.966044	107.030213	250.353515	367.629379	356.790662	232.070431	76.794483	296.217233	350.228220	392.096698	101.815462	165.206671	166.232780	124.436371	351.875722	41.165024	284.785450	172.331065	47.329873	246.373147	97.520597	171.475962	170.834303	244.562209	62.872760	148.784846	
1156	4.624000	332.240582	1287.481308	385.354549	259.008944	1302.948236	95.830001	217.533976	1348.254561	249.829650	355.402410	868.940830	378.452539	365.343809	874.284327	115.180887	156.104907	906.043649	239.067525	281.690419	780.551970	430.257410	315.679848	768.551469	57.982542	270.854771	429.264516	359.402299	384.932995	443.633735	107.303843	251.001239	367.776185	356.750280	230.309591	76.684885	296.251237	357.806981	392.399132	102.422126	177.032590	163.166329	124.964833	351.810843	41.225441	284.988344	172.382623	47.518838	246.291563	108.990908	167.072147	171.730161	258.980155	61.810773	148.748472	
1157	4.628000	336.562514	1287.628889	385.438144	262.779891	1302.965164	96.040979	221.617043	1348.277926	250.154316	359.199584	868.987143	378.887385	369.833946	874.577165	115.676627	160.203993	906.065643	239.037842	285.262913	780.466974	430.335730	320.238471	768.878520	58.043804	271.791071	429.364115	359.413624	392.004550	444.372058	107.761532	251.610279	367.935181	356.719822	229.919255	76.742902	296.233505	365.361273	392.646968	102.943256	188.964739	159.999311	125.464827	351.806223	41.237444	285.070151	172.451675	47.709268	246.199250	120.754041	162.337765	172.367096	273.861647	60.942151	148.838371	
